<svg xmlns="http://www.w3.org/2000/svg" width="64" height="64" viewBox="0 0 64 64">
  <rect width="64" height="64" rx="14" fill="#24292e"/>
  <path d="M32 14C22.6 14 15 21.6 15 31C15 38.5 19.9 44.8 26.7 47.1C27.6 47.3 28 46.7 28 46.2V43.8C22.9 44.9 21.8 41.6 21.8 41.6C21 39.6 19.9 39 19.9 39C18.3 37.9 20 37.9 20 37.9C21.8 38 22.7 39.8 22.7 39.8C24.3 42.5 26.8 41.7 27.8 41.2C28 40.1 28.4 39.4 28.8 39C24.7 38.5 20.3 36.9 20.3 29.6C20.3 27.5 21 25.9 22.2 24.6C22 24.1 21.4 22.3 22.4 20C22.4 20 23.9 19.5 27.9 22.2C29.3 21.8 30.9 21.6 32.4 21.6C34 21.6 35.5 21.8 36.9 22.2C40.9 19.5 42.4 20 42.4 20C43.4 22.3 42.8 24.1 42.6 24.6C43.8 25.9 44.5 27.5 44.5 29.6C44.5 36.9 40.1 38.5 36 39C36.5 39.5 37 40.5 37 42V46.2C37 46.7 37.3 47.3 38.3 47.1C45.1 44.8 50 38.5 50 31C50 21.6 42.4 14 33 14H32Z" fill="#ffffff"/>
</svg>
